<svg id="Layer_1" data-name="Layer 1" xmlns="http://www.w3.org/2000/svg" viewBox="0 0 80 80"><title>inClass</title><path d="M90,76.61a5.75,5.75,0,1,0-6.75,5.66V88H76.7V25.5a1,1,0,0,0-1-1h-25V19.73h9.93a1,1,0,0,0,1-1V11a1,1,0,0,0-1-1H49.68a1,1,0,0,0-1,1V24.5H24.3a1,1,0,0,0-1,1V88H16.88V82.27a5.75,5.75,0,1,0-2,0V88H11a1,1,0,0,0,0,2H89a1,1,0,0,0,0-2H85.25V82.27A5.77,5.77,0,0,0,90,76.61ZM59.61,17.73H50.67V12h8.94ZM12.13,76.61a3.75,3.75,0,1,1,3.75,3.75A3.75,3.75,0,0,1,12.13,76.61ZM74.7,45.55H66.84V35.4H74.7Zm-9.86,0h-8.4V35.4h8.4Zm-10.4,0H46.05V35.4h8.39Zm-10.4,0H35.65V35.4H44Zm-10.39,0H25.3V35.4h8.35Zm-8.35,2h8.35v10H25.3Zm10.35,0H44v10H35.65Zm10.39,0h8.4v10H46Zm10.4,0h8.4v10h-8.4Zm10.4,0H74.7v10H66.84Zm7.86-21v6.9H25.3V26.5ZM25.3,59.56H74.7V88H59.57V67.81a1,1,0,0,0-1-1H41.43a1,1,0,0,0-1,1V88H25.3Zm25.8,9.25h6.47V88H51.1ZM49.1,88H42.43V68.81H49.1ZM80.5,76.61a3.75,3.75,0,1,1,3.75,3.75A3.75,3.75,0,0,1,80.5,76.61Z" transform="translate(-10 -10)"/></svg>