<svg id="Layer_1" data-name="Layer 1" xmlns="http://www.w3.org/2000/svg" viewBox="0 0 80 79.99"><title>relax</title><path d="M89.21,88.08C89,88,70.93,82.19,44,83.34l-2.29-9a6.58,6.58,0,0,0,2.78-2.47,6.53,6.53,0,0,0,11.1,0,6.52,6.52,0,0,0,11.09,0,6.52,6.52,0,0,0,11.09,0,6.54,6.54,0,0,0,12.1-3.47,1,1,0,0,0-2,0,4.55,4.55,0,1,1-9.1,0,1,1,0,0,0-2,0,4.55,4.55,0,1,1-9.09,0,1,1,0,0,0-2,0,4.55,4.55,0,1,1-9.09,0,1,1,0,0,0-2,0,4.55,4.55,0,1,1-9.1,0,1,1,0,0,0-2,0,4.57,4.57,0,0,1-2.28,3.94L35.92,51.61c3.11-.64,6.94-.71,9.35,1.86A1,1,0,0,0,47,53a11,11,0,0,1,8-7.43,12.49,12.49,0,0,1,2.88-.38,1,1,0,0,0,.81-.43,1,1,0,0,0,.12-.91C55,33.45,43,27.85,30.67,30.53l-.53-2.08a1,1,0,1,0-1.94.49L28.72,31C16.53,34.52,8.61,45.22,10.2,56.24a1,1,0,0,0,.53.75,1,1,0,0,0,.91,0,12.11,12.11,0,0,1,2.54-1,10.82,10.82,0,0,1,10.71,2.81,1,1,0,0,0,.75.33l.24,0a1,1,0,0,0,.73-.74C27.45,54.87,30.9,53,34,52.1l5.27,20.81c-.12,0-.23,0-.35,0a4.56,4.56,0,0,1-4.55-4.56,1,1,0,0,0-2,0,4.55,4.55,0,1,1-9.1,0,1,1,0,0,0-2,0,4.55,4.55,0,1,1-9.09,0,1,1,0,0,0-2,0,6.54,6.54,0,0,0,12.09,3.47,6.53,6.53,0,0,0,11.1,0,6.55,6.55,0,0,0,5.55,3.09,6,6,0,0,0,.85-.06l2.16,8.55A167.6,167.6,0,0,0,11,88.06a1,1,0,0,0,.24,2,1,1,0,0,0,.24,0c43.69-10.79,76.77-.13,77.1,0a1,1,0,1,0,.63-1.9ZM56.42,43.32a13.92,13.92,0,0,0-9.89,5.9A36.09,36.09,0,0,0,44,42.63c-2.56-5-6-8.61-10.18-10.59C43.53,31,52.82,35.5,56.42,43.32ZM17.19,53.65a14.13,14.13,0,0,0-3.51.44,15,15,0,0,0-1.65.53c-.59-8.75,5.38-17.07,14.64-20.79C24,37.56,22.6,42.39,22.73,48a36.71,36.71,0,0,0,.93,7.29A12.92,12.92,0,0,0,17.19,53.65Zm8.55,1.73c-1-4.31-2.86-15.59,4.44-22.53C40,35.46,43.72,46.37,44.83,50.6c-2.6-1.53-6.13-1.79-10.37-.71S27.32,52.84,25.74,55.38Z" transform="translate(-9.99 -10.04)"/><path d="M81.48,26.41a7.71,7.71,0,1,0-7.7,7.73A7.73,7.73,0,0,0,81.48,26.41Zm-7.7,5.73a5.73,5.73,0,1,1,5.7-5.73A5.73,5.73,0,0,1,73.78,32.14Z" transform="translate(-9.99 -10.04)"/><path d="M74.78,14.27V11a1,1,0,1,0-2,0v3.23a1,1,0,0,0,2,0Z" transform="translate(-9.99 -10.04)"/><path d="M78.69,16.32a1,1,0,0,0,.92-.6l1.31-2.94a1,1,0,0,0-.51-1.32,1,1,0,0,0-1.32.51l-1.31,2.94a1,1,0,0,0,.51,1.32A1,1,0,0,0,78.69,16.32Z" transform="translate(-9.99 -10.04)"/><path d="M83.43,19l2.39-2.16a1,1,0,0,0-1.34-1.48l-2.39,2.15A1,1,0,0,0,82,19a1,1,0,0,0,.74.33A1,1,0,0,0,83.43,19Z" transform="translate(-9.99 -10.04)"/><path d="M85.59,23.61l3-1a1,1,0,0,0,.65-1.26A1,1,0,0,0,88,20.71l-3,1A1,1,0,0,0,84.33,23a1,1,0,0,0,1,.69A1.12,1.12,0,0,0,85.59,23.61Z" transform="translate(-9.99 -10.04)"/><path d="M89.11,27l-3.2-.33a1,1,0,0,0-1.1.88,1,1,0,0,0,.89,1.1l3.2.34H89a1,1,0,0,0,.11-2Z" transform="translate(-9.99 -10.04)"/><path d="M87,35.09a1,1,0,0,0,.5-1.86l-2.78-1.61a1,1,0,0,0-1.37.36,1,1,0,0,0,.37,1.37L86.53,35A1,1,0,0,0,87,35.09Z" transform="translate(-9.99 -10.04)"/><path d="M82,39.43a1,1,0,0,0,.81.41,1,1,0,0,0,.81-1.58l-1.89-2.61a1,1,0,0,0-1.39-.23,1,1,0,0,0-.23,1.4Z" transform="translate(-9.99 -10.04)"/><path d="M76.08,37.31a1,1,0,0,0-.77,1.18L76,41.65a1,1,0,0,0,1,.79l.21,0a1,1,0,0,0,.77-1.19l-.67-3.15A1,1,0,0,0,76.08,37.31Z" transform="translate(-9.99 -10.04)"/><path d="M70.28,38.08l-.67,3.15a1,1,0,0,0,.78,1.19.71.71,0,0,0,.2,0,1,1,0,0,0,1-.79l.67-3.16a1,1,0,0,0-.77-1.18A1,1,0,0,0,70.28,38.08Z" transform="translate(-9.99 -10.04)"/><path d="M64.78,39.84a1,1,0,0,0,.81-.41l1.89-2.61a1,1,0,0,0-.23-1.4,1,1,0,0,0-1.39.23L64,38.26a1,1,0,0,0,.81,1.58Z" transform="translate(-9.99 -10.04)"/><path d="M60.52,35.09A1,1,0,0,0,61,35l2.78-1.61A1,1,0,0,0,64.17,32a1,1,0,0,0-1.37-.36L60,33.23a1,1,0,0,0-.37,1.36A1,1,0,0,0,60.52,35.09Z" transform="translate(-9.99 -10.04)"/><path d="M57.56,28.12a1,1,0,0,0,1,.9h.11l3.19-.34a1,1,0,0,0,.89-1.1,1,1,0,0,0-1.1-.89L58.45,27A1,1,0,0,0,57.56,28.12Z" transform="translate(-9.99 -10.04)"/><path d="M58.27,21.35a1,1,0,0,0,.64,1.26l3.05,1a1.18,1.18,0,0,0,.31.05,1,1,0,0,0,.95-.69,1,1,0,0,0-.64-1.26l-3-1A1,1,0,0,0,58.27,21.35Z" transform="translate(-9.99 -10.04)"/><path d="M64.79,19.29a1,1,0,0,0,.67-1.74l-2.39-2.16a1,1,0,0,0-1.34,1.48L64.12,19A1,1,0,0,0,64.79,19.29Z" transform="translate(-9.99 -10.04)"/><path d="M68.86,16.32a1,1,0,0,0,.4-.09,1,1,0,0,0,.51-1.32L68.46,12a1,1,0,1,0-1.82.81l1.3,2.94A1,1,0,0,0,68.86,16.32Z" transform="translate(-9.99 -10.04)"/></svg>