<svg id="Layer_1" data-name="Layer 1" xmlns="http://www.w3.org/2000/svg" viewBox="0 0 47 47"><defs><style>.cls-1,.cls-2{fill:none;stroke:#000;stroke-linecap:round;}.cls-1{stroke-linejoin:round;}.cls-2{stroke-miterlimit:10;}</style></defs><title>study</title><polyline class="cls-1" points="16.86 16.7 23.56 11.02 27.81 12.54"/><polyline class="cls-1" points="36.26 15.56 46.5 19.22 26.68 38.99 2.8 28.58 7.76 24.39"/><path class="cls-1" d="M3.3,29.08c-1.77.57-4.62,5.77,1.07,8.16,6.8,2.87,23,9.76,23,9.76l17.9-17.94" transform="translate(-0.5 -0.5)"/><path class="cls-1" d="M44.13,22.68s-2.22,4.13.11,7.41" transform="translate(-0.5 -0.5)"/><path class="cls-1" d="M27.06,40.06s-2.22,3.6.11,6.47" transform="translate(-0.5 -0.5)"/><ellipse class="cls-2" cx="10.21" cy="18.56" rx="7.02" ry="5.85"/><ellipse class="cls-2" cx="29.9" cy="18.56" rx="7.02" ry="5.85"/><path class="cls-2" d="M17.19,16.14a6,6,0,0,1,7.13,0" transform="translate(-0.5 -0.5)"/><path class="cls-2" d="M4.67,15.8,11.17,2S13.05-.29,16,2" transform="translate(-0.5 -0.5)"/><path class="cls-2" d="M36.31,15.8,29.81,2S27.93-.29,25,2" transform="translate(-0.5 -0.5)"/></svg>