<svg id="Layer_1" data-name="Layer 1" xmlns="http://www.w3.org/2000/svg" viewBox="0 0 80 80"><title>travelling</title><path d="M77,62.75a1,1,0,1,0-2,0v.53a4.22,4.22,0,0,0,1,8.32h.14a2.23,2.23,0,1,1-2.24,2.23,1,1,0,0,0-2,0A4.23,4.23,0,0,0,75,77.89v.57a1,1,0,0,0,2,0V78a4.23,4.23,0,0,0-.86-8.37H76a2.23,2.23,0,1,1,2.24-2.22,1,1,0,0,0,2,0A4.22,4.22,0,0,0,77,63.28Z" transform="translate(-10.14 -10)"/><path d="M89.14,10H63L37.14,13,11.26,10a1,1,0,0,0-.78.24,1,1,0,0,0-.34.75V86A1,1,0,0,0,11,87l26,3h.23L63.2,87H89.14a1,1,0,0,0,1-1V11A1,1,0,0,0,89.14,10ZM62.64,85.05l-24.5,2.83V61.4l1.42-.53a1,1,0,0,0,.61-1.27A1,1,0,0,0,38.89,59l-.75.27V14.89l24.5-2.83V49.81q-.55.33-1.14.63A1,1,0,0,0,62,52.33a1,1,0,0,0,.46-.12,1.39,1.39,0,0,0,.21-.11ZM12.14,12.12l24,2.77V60h0a1,1,0,0,0,0,1.87v26l-24-2.77ZM88.14,85H64.64V51l.39-.23a1,1,0,0,0-.39-1.82V12h23.5Z" transform="translate(-10.14 -10)"/><path d="M76.54,30.85h.1a1,1,0,0,0,1-.9c.09-1,.15-2,.17-3a1,1,0,0,0-1-1h0a1,1,0,0,0-1,1c0,1-.07,1.91-.16,2.83A1,1,0,0,0,76.54,30.85Z" transform="translate(-10.14 -10)"/><path d="M21,69.46A12.92,12.92,0,0,0,20,71a1,1,0,1,0,1.74,1,12.8,12.8,0,0,1,.86-1.31A1,1,0,1,0,21,69.46Z" transform="translate(-10.14 -10)"/><path d="M51.79,54.58l-2.75,1a1,1,0,0,0,.33,2,.87.87,0,0,0,.32-.06c.93-.32,1.86-.64,2.77-1a1,1,0,0,0,.61-1.28A1,1,0,0,0,51.79,54.58Z" transform="translate(-10.14 -10)"/><path d="M67.65,48.6a1,1,0,0,0,.64-.23A25.61,25.61,0,0,0,70.5,46.3a1,1,0,0,0,0-1.42,1,1,0,0,0-1.41,0,24.84,24.84,0,0,1-2,1.92,1,1,0,0,0-.13,1.41A1,1,0,0,0,67.65,48.6Z" transform="translate(-10.14 -10)"/><path d="M26.31,64.72a27.23,27.23,0,0,0-2.45,1.79,1,1,0,0,0-.13,1.41,1,1,0,0,0,.77.36,1,1,0,0,0,.64-.23A22,22,0,0,1,27.4,66.4a1,1,0,0,0-1.09-1.68Z" transform="translate(-10.14 -10)"/><path d="M45.36,56.78l-2.77.93a1,1,0,0,0,.32,1.95,1.25,1.25,0,0,0,.32,0L46,58.68a1,1,0,0,0-.64-1.9Z" transform="translate(-10.14 -10)"/><path d="M32.48,61.49c-1,.42-1.86.84-2.69,1.26a1,1,0,0,0,.45,1.89.93.93,0,0,0,.45-.11c.79-.4,1.67-.81,2.59-1.21a1,1,0,1,0-.8-1.83Z" transform="translate(-10.14 -10)"/><path d="M72.21,43.58a1,1,0,0,0,.83-.43,25.34,25.34,0,0,0,1.56-2.61,1,1,0,1,0-1.78-.92A23,23,0,0,1,71.39,42a1,1,0,0,0,.26,1.39A1,1,0,0,0,72.21,43.58Z" transform="translate(-10.14 -10)"/><path d="M74.91,37.45a.87.87,0,0,0,.32.06,1,1,0,0,0,.94-.68A27.77,27.77,0,0,0,77,33.92a1,1,0,0,0-.75-1.2,1,1,0,0,0-1.2.76,26.2,26.2,0,0,1-.76,2.7A1,1,0,0,0,74.91,37.45Z" transform="translate(-10.14 -10)"/><path d="M58.06,52.1c-.87.39-1.76.76-2.66,1.11a1,1,0,0,0-.56,1.3,1,1,0,0,0,.93.63,1,1,0,0,0,.37-.07c.92-.37,1.83-.75,2.72-1.14a1,1,0,0,0-.8-1.83Z" transform="translate(-10.14 -10)"/><path d="M20,73.36a1,1,0,0,0-1.22.71,13.06,13.06,0,0,0-.42,2.5,1,1,0,0,0,.92,1.07h.08a1,1,0,0,0,1-.93,12.3,12.3,0,0,1,.36-2.13A1,1,0,0,0,20,73.36Z" transform="translate(-10.14 -10)"/><path d="M24.7,46.29V37.51L30,42.83a1,1,0,1,0,1.42-1.41L24.7,34.67V30.79L30,36.12a1,1,0,1,0,1.42-1.41L24.7,28V24.08L30,29.41a1,1,0,0,0,.71.3A1,1,0,0,0,31.42,28l-7-7a1,1,0,0,0-.71-.3A1,1,0,0,0,23,21l-7,7a1,1,0,0,0,1.42,1.41l5.3-5.33V28L16,34.71a1,1,0,0,0,.71,1.71,1,1,0,0,0,.71-.3l5.3-5.33v3.88L16,41.42a1,1,0,0,0,.71,1.71,1,1,0,0,0,.71-.3l5.3-5.32v8.78a1,1,0,0,0,2,0Z" transform="translate(-10.14 -10)"/></svg>